<svg width="154" height="154" viewBox="0 0 154 154" fill="none" xmlns="http://www.w3.org/2000/svg">
<g clip-path="url(#clip0_1424_20972)">
<path d="M77 154C119.526 154 154 119.526 154 77C154 34.4741 119.526 0 77 0C34.4741 0 0 34.4741 0 77C0 119.526 34.4741 154 77 154Z" fill="#CD1F45"/>
<path d="M101.458 104.496C101.446 104.413 101.446 104.329 101.458 104.246C101.927 102.816 101.957 101.335 101.991 99.8534C102.013 98.951 102.031 98.0461 101.991 97.1445C101.908 95.2799 101.141 93.6882 99.9346 92.3059C98.6872 90.8764 97.073 90.0722 95.2299 89.6971C93.4343 89.3312 91.634 89.3876 89.8341 89.6438C88.8836 89.7787 87.9297 89.9118 86.99 90.1061C85.8812 90.3359 84.7819 90.6152 83.6867 90.9029C82.8708 91.1167 82.0564 91.348 81.2606 91.6273C80.3384 91.9507 79.44 92.3434 78.5252 92.6893C78.2434 92.7999 77.949 92.8754 77.6487 92.9138C77.276 92.9579 76.9784 93.0712 76.817 93.4313C75.9414 95.3507 74.7445 97.0688 73.482 98.7455C72.1253 100.542 70.6447 102.241 69.0511 103.831C65.2424 107.642 61.4337 111.454 57.625 115.267C57.3012 115.592 56.9304 115.885 56.9005 116.407C56.8962 116.472 56.7456 116.527 56.6625 116.588C56.5928 116.487 56.4921 116.393 56.4638 116.282C56.4462 116.211 56.5312 116.111 56.5787 116.032C58.0198 113.538 59.5068 111.062 60.8882 108.532C61.9751 106.542 62.9617 104.496 63.9371 102.449C64.6797 100.89 65.361 99.2993 66.0229 97.7036C66.6201 96.2868 67.0993 94.8235 67.456 93.3281C67.6904 92.3185 67.9922 91.3255 68.2442 90.3193C68.3929 89.7227 68.5208 89.1208 68.6276 88.5138C68.9886 86.4495 69.3579 84.3853 69.4186 82.2829C69.4528 81.0919 69.5442 79.9002 69.5159 78.7107C69.4817 77.0374 69.2399 75.3748 68.7964 73.7609C68.4404 72.4432 68.0061 71.1481 67.4967 69.8819C65.4291 64.9034 61.8359 60.7088 57.2338 57.901C55.9223 57.1085 54.5286 56.4399 53.1306 55.8054C51.6461 55.1309 50.1316 54.5072 48.5947 53.9623C47.0978 53.431 45.5581 52.9927 44.0206 52.576C42.5942 52.1892 41.1454 51.8883 39.7083 51.5448C39.5303 51.5023 39.359 51.4309 39.112 51.3493C39.4945 51.0058 39.8989 50.9458 40.2682 50.8186C41.4506 50.4129 42.6873 50.4212 43.9159 50.363C44.2408 50.347 44.5651 50.3113 44.8904 50.2848C45.0043 50.2679 45.1195 50.2602 45.2347 50.2623C47.0535 50.4105 48.8842 50.4561 50.678 50.8229C51.6935 51.0299 52.7056 51.2753 53.6995 51.5713C54.8958 51.924 56.0809 52.3158 57.2547 52.7463C58.3358 53.143 59.4061 53.5782 60.4499 54.0587C62.0343 54.7948 63.6103 55.5559 65.1546 56.369C66.8379 57.2548 68.4739 58.2303 70.1495 59.1312C71.8752 60.0583 73.6268 60.9391 75.3633 61.8474C76.0775 62.2217 76.7628 62.6565 77.4956 62.9883C78.4387 63.4158 79.4027 63.8032 80.3806 64.1417C81.2325 64.4405 82.1033 64.6826 82.9872 64.8671C84.1148 65.0984 85.2575 65.2647 86.3968 65.4067C87.0661 65.4818 87.7397 65.5099 88.4129 65.4898C89.6819 65.4683 90.9552 65.4624 92.2177 65.346C94.1522 65.1674 96.0751 64.8778 97.8821 64.0986C99.4437 63.4382 100.897 62.5472 102.193 61.4547C103.579 60.2865 104.747 58.8811 105.641 57.3038C105.979 56.706 106.254 56.0715 106.574 55.4195C106.783 55.6073 106.736 55.8294 106.698 56.0158C106.595 56.5831 106.462 57.1443 106.299 57.6974C105.767 59.3674 105.111 60.9823 104.188 62.4853C102.786 64.7722 100.915 66.7357 98.6989 68.2471C97.3166 69.1917 95.8339 69.9802 94.2776 70.598C92.7976 71.1922 91.2666 71.6511 89.7035 71.9686C89.158 72.0801 88.615 72.2005 88.0726 72.3271C86.4926 72.6921 84.9033 72.9508 83.2823 73.0106C82.7076 73.0321 82.1337 73.0854 81.559 73.1187C80.8457 73.1612 80.6443 73.3617 80.6252 74.076C80.6095 74.3451 80.619 74.6153 80.6535 74.8826C80.7973 75.7352 80.968 76.5834 81.1217 77.4344C81.1823 77.7744 81.2165 78.1203 81.2797 78.4597C81.4752 79.5168 81.6813 80.572 81.8803 81.6284C81.9542 82.0251 82.1938 82.2022 82.588 82.2688C82.9678 82.335 83.3584 82.3063 83.7249 82.1856C84.8583 81.8197 85.9819 81.4196 87.1255 81.0894C88.1749 80.7857 89.2402 80.5273 90.3108 80.3034C91.2678 80.0986 92.2346 79.9424 93.2073 79.8352C93.9859 79.7521 94.7759 79.7921 95.561 79.7795C95.6765 79.7795 95.7923 79.7995 95.9069 79.7921C97.9237 79.6631 99.6087 80.4657 101.166 81.6457C102.678 82.7911 103.654 84.2954 104.214 86.0901C104.564 87.2122 104.879 88.3357 104.809 89.5348C104.717 91.263 104.528 92.9844 104.243 94.6913C104.005 96.0742 103.809 97.4664 103.502 98.833C103.16 100.372 102.687 101.879 102.088 103.337C101.922 103.735 101.738 104.126 101.562 104.521L101.458 104.496Z" fill="white"/>
<path d="M117.518 47.1144V52.5407C117.518 52.6565 117.525 52.772 117.518 52.8869C117.488 53.2362 117.403 53.3276 117.05 53.3267C116.801 53.3267 116.551 53.2753 116.302 53.2593C114.614 53.153 112.928 53.0372 111.239 52.951C110.337 52.9041 109.432 52.89 108.528 52.8934C106.335 52.9011 104.141 52.9041 101.949 52.955C100.818 52.9808 99.6885 53.1071 98.5575 53.1829C97.7715 53.2362 96.9855 53.2901 96.198 53.3276C95.6266 53.3551 95.4769 53.2094 95.4745 52.6272C95.4686 51.1652 95.4745 49.7025 95.4745 48.2404C95.4745 46.1047 95.4745 43.9688 95.4745 41.8325C95.4745 41.6976 95.468 41.562 95.4794 41.4281C95.512 41.0615 95.6124 40.9559 95.9734 40.9202C96.1265 40.9042 96.2811 40.9134 96.4351 40.9125H116.757C116.814 40.9125 116.872 40.9125 116.93 40.9125C117.465 40.9226 117.518 40.9707 117.519 41.5146C117.521 43.3808 117.52 45.2476 117.518 47.1144Z" fill="white"/>
<path d="M80.81 51.4632C80.5087 51.4314 80.3326 51.3966 80.1552 51.3966C76.9045 51.3966 73.6533 51.4007 70.4017 51.409C69.4617 51.409 69.1648 51.0865 69.3745 50.1665C69.965 47.575 71.3812 45.6192 73.8655 44.5363C75.1637 43.9698 76.5368 43.9831 77.8941 44.1928C79.2774 44.3918 80.5614 45.0247 81.5618 46.0008C82.4291 46.8456 83.0479 47.8571 83.492 48.9773C83.6131 49.2795 83.7147 49.5893 83.7963 49.9047C83.9118 50.3661 83.9685 50.4394 84.4616 50.4477C85.1928 50.4594 85.9237 50.4477 86.6546 50.4477C86.8277 50.4412 87.0011 50.4514 87.172 50.4785C87.4215 50.529 87.597 50.6787 87.5946 50.9507C87.5946 51.2054 87.4064 51.3209 87.1862 51.3668C87.0349 51.3948 86.8816 51.4068 86.7279 51.4031C85.0348 51.4031 83.3414 51.4031 81.649 51.4031C81.4494 51.4031 81.2498 51.4281 80.9054 51.4524C81.1343 51.7151 81.2572 51.8771 81.4004 52.0179C81.6896 52.3025 81.8719 52.6782 81.9166 53.0814C82.1454 54.6667 81.9166 56.1469 80.9812 57.4809C79.9001 59.027 78.4362 59.9144 76.5368 59.9935C75.5388 60.0351 74.5465 60.0142 73.5794 59.6541C72.3095 59.1817 71.3704 58.3359 70.6992 57.1975C70.0081 56.0247 69.6847 54.7557 69.9326 53.3808C70.0608 52.6724 70.4131 52.3505 71.1526 52.3471C73.1343 52.3397 75.1163 52.3314 77.0973 52.3471C78.0398 52.3428 78.9795 52.2421 79.9017 52.0462C80.2318 51.9862 80.4705 51.7841 80.81 51.4632Z" fill="white"/>
<path d="M64.818 82.1098H62.3346C62.2 82.1042 62.0654 82.1067 61.9311 82.1172C61.5935 82.1553 61.4962 82.3093 61.6151 82.6297C61.7549 83.007 61.9212 83.3781 62.0552 83.7548C62.2844 84.3893 62.3605 85.0687 62.277 85.7383C62.1938 86.4295 61.8405 86.9691 61.3622 87.4231C60.0748 88.6366 58.5163 88.9511 56.8165 88.7007C56.3822 88.6375 55.9574 88.4977 55.5349 88.368C54.8055 88.145 54.4137 87.562 54.1467 86.9143C53.8849 86.2789 53.6428 85.6176 53.5215 84.9449C53.3019 83.7255 53.7709 82.682 54.5459 81.7605C54.6451 81.6422 54.759 81.5366 54.8588 81.4202C55.1914 81.0287 55.2022 80.7998 54.8588 80.413C54.4904 80.0212 54.1969 79.5657 53.9921 79.0683C53.6912 78.2983 53.6721 77.519 53.8258 76.7398C54.0454 75.6485 54.4787 74.6497 55.3319 73.8812C56.6052 72.7346 58.0423 72.377 59.6417 73.0663C60.376 73.3832 61.1303 73.7032 61.6776 74.342C62.4427 75.2327 62.9299 76.234 62.8767 77.4325C62.8619 77.7694 62.7371 78.1021 62.6571 78.4347C62.6256 78.5653 62.5684 78.6891 62.5366 78.8197C62.3845 79.4493 62.5631 79.6972 63.2019 79.7021C64.5325 79.7114 65.8575 79.7021 67.1856 79.7021C67.3396 79.7021 67.4933 79.6972 67.6473 79.7021C68.4339 79.7335 68.5827 80.0431 68.3649 80.6311C68.2602 80.9147 68.2685 81.2381 68.1986 81.5366C68.0886 82.0041 67.9633 82.099 67.4766 82.1024C66.5908 82.1079 65.7059 82.1024 64.8211 82.1024L64.818 82.1098ZM58.2477 78.4381C58.9213 78.4381 59.5552 78.0414 59.7446 77.4981C59.9245 76.9874 59.7049 76.393 59.1874 75.9855C58.9678 75.8124 58.6986 75.7141 58.4193 75.7052C58.1399 75.6963 57.8649 75.777 57.6348 75.9356C57.1516 76.2682 56.7915 77.0216 57.0527 77.7103C57.2671 78.2767 57.4734 78.4362 58.2443 78.4381H58.2477ZM59.1468 84.7943C59.209 84.174 58.4923 83.2925 57.7155 83.3806C57.1623 83.4412 56.3018 84.5125 56.408 85.0595C56.5288 85.6859 57.2088 86.1864 57.8584 86.1282C58.5354 86.0651 59.1375 85.4429 59.1434 84.7943H59.1468Z" fill="white"/>
<path d="M106.55 39.918H96.4493C96.3335 39.918 96.218 39.9239 96.1031 39.918C95.7406 39.8956 95.5918 39.7727 95.5943 39.5072C95.5943 39.1622 95.8903 38.8644 96.2164 38.8902C96.9233 38.9466 97.6301 38.9866 98.3361 39.079C99.9571 39.2786 101.589 39.3772 103.222 39.3741C105.512 39.3874 107.802 39.4148 110.09 39.3649C111.798 39.3276 113.5 39.1721 115.208 39.0797C115.823 39.0458 116.438 39.0248 117.054 39.0298C117.4 39.0298 117.535 39.2146 117.521 39.5447C117.51 39.7733 117.402 39.9048 117.17 39.918C117.055 39.9248 116.939 39.918 116.824 39.918H106.55Z" fill="white"/>
</g>
<defs>
<clipPath id="clip0_1424_20972">
<rect width="154" height="154" fill="white"/>
</clipPath>
</defs>
</svg>
